<svg width="56" height="56" viewBox="0 0 66 66" fill="none" xmlns="http://www.w3.org/2000/svg">
<path d="M33 16C29.6377 16 26.3509 16.997 23.5553 18.865C20.7597 20.733 18.5807 23.388 17.2941 26.4944C16.0074 29.6007 15.6707 33.0189 16.3267 36.3165C16.9826 39.6142 18.6017 42.6433 20.9792 45.0208C23.3567 47.3983 26.3858 49.0174 29.6835 49.6733C32.9811 50.3293 36.3993 49.9926 39.5056 48.7059C42.612 47.4193 45.267 45.2403 47.135 42.4447C49.003 39.6491 50 36.3623 50 33C49.9952 28.4928 48.2026 24.1715 45.0156 20.9844C41.8285 17.7974 37.5072 16.0048 33 16ZM33 47.3846C30.155 47.3846 27.3739 46.541 25.0083 44.9604C22.6428 43.3798 20.7991 41.1332 19.7104 38.5048C18.6216 35.8763 18.3368 32.984 18.8918 30.1937C19.4468 27.4034 20.8168 24.8403 22.8285 22.8285C24.8403 20.8168 27.4034 19.4468 30.1937 18.8918C32.984 18.3367 35.8763 18.6216 38.5048 19.7103C41.1332 20.7991 43.3798 22.6428 44.9604 25.0083C46.541 27.3739 47.3846 30.155 47.3846 33C47.3803 36.8137 45.8634 40.47 43.1667 43.1667C40.47 45.8634 36.8137 47.3803 33 47.3846Z" fill="#3772FF"/>
<path d="M33 0C26.4732 0 20.093 1.93542 14.6662 5.5615C9.23937 9.18759 5.00968 14.3415 2.51199 20.3714C0.0142984 26.4014 -0.639212 33.0366 0.6341 39.438C1.90741 45.8393 5.05036 51.7194 9.66549 56.3345C14.2806 60.9496 20.1607 64.0926 26.562 65.3659C32.9634 66.6392 39.5986 65.9857 45.6286 63.488C51.6585 60.9903 56.8124 56.7606 60.4385 51.3338C64.0646 45.907 66 39.5268 66 33C65.9908 24.2507 62.511 15.8624 56.3243 9.67568C50.1376 3.48898 41.7493 0.00923942 33 0ZM33 60.9231C27.4773 60.9231 22.0787 59.2854 17.4868 56.2172C12.8949 53.149 9.31588 48.788 7.20245 43.6857C5.08902 38.5834 4.53605 32.969 5.61347 27.5525C6.69089 22.1359 9.3503 17.1605 13.2554 13.2554C17.1605 9.35029 22.1359 6.69087 27.5525 5.61346C32.969 4.53604 38.5834 5.08901 43.6857 7.20244C48.788 9.31587 53.149 12.8948 56.2172 17.4868C59.2854 22.0787 60.9231 27.4773 60.9231 33C60.9147 40.4031 57.9701 47.5005 52.7353 52.7353C47.5006 57.9701 40.4031 60.9147 33 60.9231Z" fill="#3772FF"/>
</svg>
