<svg width="58" height="52" viewBox="0 0 78 72" fill="none" xmlns="http://www.w3.org/2000/svg">
<path d="M56.94 9.3995L40.44 0.371372C39.9991 0.127776 39.5037 0 39 0C38.4963 0 38.0009 0.127776 37.56 0.371372L21.06 9.40325C20.5888 9.66107 20.1954 10.0407 19.921 10.5024C19.6466 10.9642 19.5012 11.4911 19.5 12.0282V29.9607C19.5012 30.4979 19.6466 31.0248 19.921 31.4866C20.1954 31.9483 20.5888 32.3279 21.06 32.5857L37.56 41.6176C38.0009 41.8612 38.4963 41.989 39 41.989C39.5037 41.989 39.9991 41.8612 40.44 41.6176L56.94 32.5857C57.4112 32.3279 57.8046 31.9483 58.079 31.4866C58.3534 31.0248 58.4988 30.4979 58.5 29.9607V12.0301C58.4998 11.492 58.3549 10.9639 58.0804 10.5011C57.8059 10.0383 57.412 9.65778 56.94 9.3995ZM39 2.99637L54.0638 11.2464L39 19.4964L23.9362 11.2464L39 2.99637ZM22.5 13.8714L37.5 22.0801V38.1657L22.5 29.9626V13.8714ZM40.5 38.1657V22.0876L55.5 13.8714V29.9551L40.5 38.1657Z" fill="white"/>
<path d="M37.44 39.3995L20.94 30.3714C20.4991 30.1278 20.0037 30 19.5 30C18.9963 30 18.5009 30.1278 18.06 30.3714L1.56 39.4032C1.08879 39.6611 0.695444 40.0407 0.421035 40.5024C0.146625 40.9642 0.00121923 41.4911 0 42.0282V59.9607C0.00121923 60.4979 0.146625 61.0248 0.421035 61.4866C0.695444 61.9483 1.08879 62.3279 1.56 62.5857L18.06 71.6176C18.5009 71.8612 18.9963 71.989 19.5 71.989C20.0037 71.989 20.4991 71.8612 20.94 71.6176L37.44 62.5857C37.9112 62.3279 38.3046 61.9483 38.579 61.4866C38.8534 61.0248 38.9988 60.4979 39 59.9607V42.0301C38.9998 41.492 38.8549 40.9639 38.5804 40.5011C38.3059 40.0383 37.912 39.6578 37.44 39.3995ZM19.5 32.9964L34.5638 41.2464L19.5 49.4964L4.43625 41.2464L19.5 32.9964ZM3 43.8714L18 52.0801V68.1657L3 59.9626V43.8714ZM21 68.1657V52.0876L36 43.8714V59.9551L21 68.1657Z" fill="white"/>
<path d="M76.44 39.3995L59.94 30.3714C59.4991 30.1278 59.0037 30 58.5 30C57.9963 30 57.5009 30.1278 57.06 30.3714L40.56 39.4032C40.0888 39.6611 39.6954 40.0407 39.421 40.5024C39.1466 40.9642 39.0012 41.4911 39 42.0282V59.9607C39.0012 60.4979 39.1466 61.0248 39.421 61.4866C39.6954 61.9483 40.0888 62.3279 40.56 62.5857L57.06 71.6176C57.5009 71.8612 57.9963 71.989 58.5 71.989C59.0037 71.989 59.4991 71.8612 59.94 71.6176L76.44 62.5857C76.9112 62.3279 77.3046 61.9483 77.579 61.4866C77.8534 61.0248 77.9988 60.4979 78 59.9607V42.0301C77.9998 41.492 77.8549 40.9639 77.5804 40.5011C77.3059 40.0383 76.912 39.6578 76.44 39.3995ZM58.5 32.9964L73.5638 41.2464L58.5 49.4964L43.4362 41.2464L58.5 32.9964ZM42 43.8714L57 52.0801V68.1657L42 59.9626V43.8714ZM60 68.1657V52.0876L75 43.8714V59.9551L60 68.1657Z" fill="white"/>
</svg>
