<svg width="34" height="36" viewBox="0 0 34 36" fill="none" xmlns="http://www.w3.org/2000/svg">
<path d="M12.875 15.25C12.875 14.8853 12.7301 14.5356 12.4722 14.2777C12.2144 14.0199 11.8646 13.875 11.5 13.875H6.56887L11.4312 9.01439C12.0678 8.37372 12.8253 7.86578 13.6596 7.52C14.494 7.17422 15.3887 6.99747 16.2918 7.00001L22.6718 7.00001C23.0065 8.29617 23.8024 9.42577 24.9103 10.1771C26.0183 10.9284 27.3622 11.2499 28.6902 11.0812C30.0182 10.9125 31.2391 10.2653 32.124 9.26083C33.009 8.25639 33.4972 6.96368 33.4972 5.62501C33.4972 4.28635 33.009 2.99364 32.124 1.98919C31.2391 0.984747 30.0182 0.337527 28.6902 0.16885C27.3622 0.000172675 26.0183 0.321619 24.9103 1.07294C23.8024 1.82425 23.0065 2.95386 22.6718 4.25001L16.2901 4.25001C15.0257 4.24682 13.7731 4.49428 12.6048 4.9781C11.4366 5.46192 10.3758 6.1725 9.48387 7.06876L4.62496 11.9311V7.00001C4.62496 6.63534 4.4801 6.2856 4.22223 6.02774C3.96437 5.76988 3.61464 5.62501 3.24996 5.62501C2.88529 5.62501 2.53555 5.76988 2.27769 6.02774C2.01983 6.2856 1.87496 6.63534 1.87496 7.00001V15.25C1.87496 15.6147 2.01983 15.9644 2.27769 16.2223C2.53555 16.4801 2.88529 16.625 3.24996 16.625H11.5C11.8646 16.625 12.2144 16.4801 12.4722 16.2223C12.7301 15.9644 12.875 15.6147 12.875 15.25ZM28 2.87501C28.5439 2.87501 29.0755 3.0363 29.5278 3.33847C29.98 3.64065 30.3325 4.07014 30.5406 4.57263C30.7488 5.07513 30.8032 5.62806 30.6971 6.16151C30.591 6.69496 30.3291 7.18496 29.9445 7.56956C29.5599 7.95415 29.0699 8.21606 28.5365 8.32217C28.003 8.42828 27.4501 8.37382 26.9476 8.16568C26.4451 7.95754 26.0156 7.60507 25.7134 7.15283C25.4112 6.7006 25.25 6.16891 25.25 5.62501C25.25 4.89567 25.5397 4.19619 26.0554 3.68047C26.5711 3.16474 27.2706 2.87501 28 2.87501ZM11.3281 31.75L17.7081 31.75C18.9726 31.7532 20.2251 31.5057 21.3934 31.0219C22.5616 30.5381 23.6224 29.8275 24.5143 28.9313L29.375 24.0689V29C29.375 29.3647 29.5198 29.7144 29.7777 29.9723C30.0356 30.2301 30.3853 30.375 30.75 30.375C31.1146 30.375 31.4644 30.2301 31.7222 29.9723C31.9801 29.7144 32.125 29.3647 32.125 29V20.75C32.125 20.3853 31.9801 20.0356 31.7222 19.7777C31.4644 19.5199 31.1146 19.375 30.75 19.375H22.5C22.1353 19.375 21.7856 19.5199 21.5277 19.7777C21.2698 20.0356 21.125 20.3853 21.125 20.75C21.125 21.1147 21.2698 21.4644 21.5277 21.7223C21.7856 21.9801 22.1353 22.125 22.5 22.125H27.4311L22.5687 26.9856C21.9321 27.6263 21.1747 28.1342 20.3403 28.48C19.506 28.8258 18.6113 29.0026 17.7081 29L11.3281 29C10.9934 27.7039 10.1975 26.5743 9.08958 25.8229C7.98163 25.0716 6.6377 24.7502 5.30971 24.9188C3.98172 25.0875 2.76083 25.7347 1.87589 26.7392C0.990959 27.7436 0.502735 29.0364 0.502735 30.375C0.502735 31.7137 0.990959 33.0064 1.87589 34.0108C2.76083 35.0153 3.98172 35.6625 5.30971 35.8312C6.6377 35.9999 7.98163 35.6784 9.08958 34.9271C10.1975 34.1758 10.9934 33.0462 11.3281 31.75ZM3.24996 30.375C3.24996 29.8311 3.41125 29.2994 3.71342 28.8472C4.01559 28.395 4.44509 28.0425 4.94758 27.8343C5.45008 27.6262 6.00301 27.5717 6.53646 27.6779C7.06991 27.784 7.55991 28.0459 7.94451 28.4305C8.3291 28.8151 8.59101 29.3051 8.69712 29.8385C8.80323 30.372 8.74877 30.9249 8.54063 31.4274C8.33249 31.9299 7.98002 32.3594 7.52778 32.6616C7.07555 32.9637 6.54386 33.125 5.99996 33.125C5.27062 33.125 4.57114 32.8353 4.05542 32.3196C3.53969 31.8038 3.24996 31.1044 3.24996 30.375Z" fill="white"/>
</svg>
