<svg width="56" height="55  " viewBox="0 0 68 64" fill="none" xmlns="http://www.w3.org/2000/svg">
<path d="M68 32C68 32.6062 67.7612 33.1876 67.3361 33.6162C66.911 34.0449 66.3345 34.2857 65.7333 34.2857H61.0102C60.4702 37.4794 58.8283 40.378 56.3745 42.4692C53.9206 44.5604 50.8128 45.7098 47.6 45.7143H36.2667V52.5714H43.0667C45.4713 52.5714 47.7774 53.5347 49.4778 55.2493C51.1781 56.9639 52.1333 59.2895 52.1333 61.7143C52.1333 62.3205 51.8945 62.9019 51.4694 63.3305C51.0444 63.7592 50.4678 64 49.8667 64C49.2655 64 48.689 63.7592 48.2639 63.3305C47.8388 62.9019 47.6 62.3205 47.6 61.7143C47.6 60.5019 47.1224 59.3391 46.2722 58.4818C45.4221 57.6245 44.269 57.1429 43.0667 57.1429H36.2667V61.7143C36.2667 62.3205 36.0279 62.9019 35.6028 63.3305C35.1777 63.7592 34.6012 64 34 64C33.3988 64 32.8223 63.7592 32.3972 63.3305C31.9721 62.9019 31.7333 62.3205 31.7333 61.7143V57.1429H24.9333C23.731 57.1429 22.5779 57.6245 21.7278 58.4818C20.8776 59.3391 20.4 60.5019 20.4 61.7143C20.4 62.3205 20.1612 62.9019 19.7361 63.3305C19.311 63.7592 18.7345 64 18.1333 64C17.5322 64 16.9556 63.7592 16.5306 63.3305C16.1055 62.9019 15.8667 62.3205 15.8667 61.7143C15.8667 59.2895 16.8219 56.9639 18.5222 55.2493C20.2226 53.5347 22.5287 52.5714 24.9333 52.5714H31.7333V45.7143H20.4C17.1872 45.7098 14.0794 44.5604 11.6255 42.4692C9.17167 40.378 7.52975 37.4794 6.98983 34.2857H2.26667C1.66551 34.2857 1.08897 34.0449 0.663891 33.6162C0.238809 33.1876 0 32.6062 0 32C0 31.3938 0.238809 30.8124 0.663891 30.3838C1.08897 29.9551 1.66551 29.7143 2.26667 29.7143H9.06667C9.66782 29.7143 10.2444 29.9551 10.6694 30.3838C11.0945 30.8124 11.3333 31.3938 11.3333 32C11.3333 34.4248 12.2886 36.7504 13.9889 38.465C15.6892 40.1796 17.9954 41.1429 20.4 41.1429H47.6C50.0046 41.1429 52.3108 40.1796 54.0111 38.465C55.7114 36.7504 56.6667 34.4248 56.6667 32C56.6667 31.3938 56.9055 30.8124 57.3306 30.3838C57.7556 29.9551 58.3322 29.7143 58.9333 29.7143H65.7333C66.3345 29.7143 66.911 29.9551 67.3361 30.3838C67.7612 30.8124 68 31.3938 68 32ZM16.9745 34.9943C16.5493 34.4996 16.2344 33.9187 16.0511 33.2907C15.8677 32.6627 15.8203 32.0024 15.912 31.3543L19.7993 3.92571C19.958 2.83815 20.498 1.84399 21.3215 1.12369C22.145 0.403395 23.1972 0.00470668 24.2873 0H43.7127C44.8028 0.00470668 45.855 0.403395 46.6785 1.12369C47.502 1.84399 48.042 2.83815 48.2007 3.92571L52.088 31.3543C52.1797 32.0026 52.1323 32.6633 51.9488 33.2915C51.7653 33.9197 51.4501 34.5009 51.0245 34.9956C50.599 35.4903 50.073 35.887 49.4821 36.1589C48.8913 36.4308 48.2494 36.5714 47.6 36.5714H20.4C19.7503 36.5714 19.1082 36.4306 18.5172 36.1585C17.9262 35.8864 17.4001 35.4893 16.9745 34.9943ZM20.4 32H47.6L43.7127 4.57143H24.2845L20.4 32Z" fill="#3772FF"/>
</svg>
