<svg width="54" height="57" viewBox="0 0 54 57" fill="none" xmlns="http://www.w3.org/2000/svg">
<path d="M49.5 0H4.5C3.30653 0 2.16193 0.480434 1.31802 1.33561C0.474106 2.19079 0 3.35066 0 4.56007V21.3126C0 46.8519 21.3244 55.3251 25.5938 56.7643C26.5056 57.0786 27.4944 57.0786 28.4062 56.7643C32.6813 55.3251 54 46.8519 54 21.3126V4.56007C54 3.35066 53.5259 2.19079 52.682 1.33561C51.8381 0.480434 50.6935 0 49.5 0ZM49.5 21.3155C49.5 43.6655 30.8391 51.1326 27 52.4323C23.1947 51.1469 4.5 43.6855 4.5 21.3155V4.56007H49.5V21.3155ZM14.1581 28.9735C13.7359 28.5457 13.4987 27.9655 13.4987 27.3604C13.4987 26.7554 13.7359 26.1751 14.1581 25.7473C14.5803 25.3195 15.1529 25.0791 15.75 25.0791C16.3471 25.0791 16.9197 25.3195 17.3419 25.7473L22.5 30.9743L36.6581 16.6272C36.8672 16.4153 37.1153 16.2473 37.3885 16.1326C37.6616 16.018 37.9544 15.959 38.25 15.959C38.5456 15.959 38.8384 16.018 39.1115 16.1326C39.3847 16.2473 39.6328 16.4153 39.8419 16.6272C40.0509 16.839 40.2167 17.0905 40.3299 17.3673C40.443 17.644 40.5013 17.9407 40.5013 18.2403C40.5013 18.5399 40.443 18.8365 40.3299 19.1133C40.2167 19.3901 40.0509 19.6416 39.8419 19.8534L24.0919 35.8137C23.8829 36.0256 23.6348 36.1938 23.3616 36.3086C23.0885 36.4233 22.7957 36.4824 22.5 36.4824C22.2043 36.4824 21.9115 36.4233 21.6384 36.3086C21.3652 36.1938 21.1171 36.0256 20.9081 35.8137L14.1581 28.9735Z" fill="#3772FF"/>
</svg>
