<svg width="56" height="40" viewBox="0 0 56 40" fill="none" xmlns="http://www.w3.org/2000/svg">
<path d="M52 0H4C2.93913 0 1.92172 0.421427 1.17157 1.17157C0.421427 1.92172 0 2.93913 0 4V36C0 37.0609 0.421427 38.0783 1.17157 38.8284C1.92172 39.5786 2.93913 40 4 40H52C53.0609 40 54.0783 39.5786 54.8284 38.8284C55.5786 38.0783 56 37.0609 56 36V4C56 2.93913 55.5786 1.92172 54.8284 1.17157C54.0783 0.421427 53.0609 0 52 0ZM52 36H4V4H52V36ZM25.73 25.9275C25.9955 26.3867 26.0678 26.9325 25.9309 27.4449C25.794 27.9574 25.4591 28.3944 25 28.66C23.4798 29.5378 21.7554 29.9999 19.9999 30C18.2445 30.0001 16.52 29.538 14.9998 28.6604C13.4795 27.7827 12.2171 26.5203 11.3394 25.0001C10.4616 23.4799 9.99956 21.7554 9.99956 20C9.99956 18.2446 10.4616 16.5201 11.3394 14.9999C12.2171 13.4797 13.4795 12.2173 14.9998 11.3396C16.52 10.462 18.2445 9.99993 19.9999 10C21.7554 10.0001 23.4798 10.4622 25 11.34C25.2347 11.4674 25.4415 11.6406 25.6082 11.8493C25.7749 12.0579 25.8981 12.2979 25.9706 12.5549C26.043 12.812 26.0633 13.081 26.0301 13.346C25.997 13.611 25.911 13.8667 25.7775 14.0979C25.6439 14.3292 25.4653 14.5314 25.2523 14.6925C25.0393 14.8537 24.7962 14.9705 24.5374 15.0362C24.2785 15.1019 24.0091 15.115 23.745 15.0749C23.481 15.0347 23.2277 14.9421 23 14.8025C22.0878 14.2764 21.0533 13.9996 20.0003 14C18.9473 14.0004 17.913 14.2778 17.0012 14.8045C16.0894 15.3312 15.3322 16.0886 14.8058 17.0006C14.2795 17.9126 14.0023 18.947 14.0023 20C14.0023 21.053 14.2795 22.0874 14.8058 22.9994C15.3322 23.9114 16.0894 24.6688 17.0012 25.1955C17.913 25.7222 18.9473 25.9996 20.0003 26C21.0533 26.0004 22.0878 25.7236 23 25.1975C23.4589 24.9328 24.0042 24.8609 24.516 24.9978C25.0278 25.1347 25.4644 25.469 25.73 25.9275ZM45.73 25.9275C45.9955 26.3867 46.0678 26.9325 45.9309 27.4449C45.794 27.9574 45.4591 28.3944 45 28.66C43.4798 29.5378 41.7554 29.9999 39.9999 30C38.2445 30.0001 36.52 29.538 34.9998 28.6604C33.4795 27.7827 32.2171 26.5203 31.3394 25.0001C30.4616 23.4799 29.9996 21.7554 29.9996 20C29.9996 18.2446 30.4616 16.5201 31.3394 14.9999C32.2171 13.4797 33.4795 12.2173 34.9998 11.3396C36.52 10.462 38.2445 9.99993 39.9999 10C41.7554 10.0001 43.4798 10.4622 45 11.34C45.2347 11.4674 45.4415 11.6406 45.6082 11.8493C45.7749 12.0579 45.8981 12.2979 45.9706 12.5549C46.043 12.812 46.0633 13.081 46.0301 13.346C45.9969 13.611 45.911 13.8667 45.7775 14.0979C45.6439 14.3292 45.4653 14.5314 45.2523 14.6925C45.0394 14.8537 44.7962 14.9705 44.5374 15.0362C44.2785 15.1019 44.0091 15.115 43.745 15.0749C43.481 15.0347 43.2277 14.9421 43 14.8025C42.0878 14.2764 41.0533 13.9996 40.0003 14C38.9473 14.0004 37.913 14.2778 37.0012 14.8045C36.0894 15.3312 35.3322 16.0886 34.8058 17.0006C34.2795 17.9126 34.0023 18.947 34.0023 20C34.0023 21.053 34.2795 22.0874 34.8058 22.9994C35.3322 23.9114 36.0894 24.6688 37.0012 25.1955C37.913 25.7222 38.9473 25.9996 40.0003 26C41.0533 26.0004 42.0878 25.7236 43 25.1975C43.4589 24.9328 44.0042 24.8609 44.516 24.9978C45.0278 25.1347 45.4644 25.469 45.73 25.9275Z" fill="white"/>
</svg>
