<svg width="32" height="49" viewBox="0 0 32 49" fill="none" xmlns="http://www.w3.org/2000/svg">
<path d="M26.6667 0H5.33333C3.91885 0 2.56229 0.553124 1.5621 1.53769C0.561903 2.52226 0 3.85761 0 5.25V43.75C0 45.1424 0.561903 46.4777 1.5621 47.4623C2.56229 48.4469 3.91885 49 5.33333 49H26.6667C28.0812 49 29.4377 48.4469 30.4379 47.4623C31.4381 46.4777 32 45.1424 32 43.75V5.25C32 3.85761 31.4381 2.52226 30.4379 1.53769C29.4377 0.553124 28.0812 0 26.6667 0ZM3.55556 10.5H28.4444V38.5H3.55556V10.5ZM5.33333 3.5H26.6667C27.1382 3.5 27.5903 3.68437 27.9237 4.01256C28.2571 4.34075 28.4444 4.78587 28.4444 5.25V7H3.55556V5.25C3.55556 4.78587 3.74286 4.34075 4.07625 4.01256C4.40965 3.68437 4.86184 3.5 5.33333 3.5ZM26.6667 45.5H5.33333C4.86184 45.5 4.40965 45.3156 4.07625 44.9874C3.74286 44.6592 3.55556 44.2141 3.55556 43.75V42H28.4444V43.75C28.4444 44.2141 28.2571 44.6592 27.9237 44.9874C27.5903 45.3156 27.1382 45.5 26.6667 45.5Z" fill="white"/>
</svg>
