<svg width="55" height="45" viewBox="0 0 62 46" fill="none" xmlns="http://www.w3.org/2000/svg">
<path d="M45.4667 12.9558V11.5C45.4667 4.945 35.6939 0 22.7333 0C9.77275 0 0 4.945 0 11.5V21.9545C0 27.4144 6.78125 31.7531 16.5333 33.052V34.5C16.5333 41.055 26.3061 46 39.2667 46C52.2272 46 62 41.055 62 34.5V24.0455C62 18.6352 55.4332 14.2914 45.4667 12.9558ZM57.8667 24.0455C57.8667 27.5007 49.9126 31.3636 39.2667 31.3636C38.3031 31.3636 37.3472 31.3297 36.4043 31.2669C41.9766 29.2126 45.4667 25.875 45.4667 21.9545V17.182C53.1831 18.3451 57.8667 21.5024 57.8667 24.0455ZM16.5333 28.8153V22.5975C18.5891 22.8685 20.6602 23.003 22.7333 23C24.8065 23.003 26.8776 22.8685 28.9333 22.5975V28.8153C26.8806 29.1221 24.8083 29.275 22.7333 29.2727C20.6583 29.275 18.586 29.1221 16.5333 28.8153ZM41.3333 18.2772V21.9545C41.3333 24.1474 38.1274 26.5023 33.0667 27.9319V21.8239C36.4017 21.0058 39.2253 19.7878 41.3333 18.2772ZM22.7333 4.18182C33.3792 4.18182 41.3333 8.04477 41.3333 11.5C41.3333 14.9552 33.3792 18.8182 22.7333 18.8182C12.0874 18.8182 4.13333 14.9552 4.13333 11.5C4.13333 8.04477 12.0874 4.18182 22.7333 4.18182ZM4.13333 21.9545V18.2772C6.24133 19.7878 9.06492 21.0058 12.4 21.8239V27.9319C7.33925 26.5023 4.13333 24.1474 4.13333 21.9545ZM20.6667 34.5V33.4101C21.3461 33.4362 22.0332 33.4545 22.7333 33.4545C23.7357 33.4545 24.7147 33.4206 25.6757 33.3631C26.7433 33.7497 27.8308 34.0778 28.9333 34.3458V40.4774C23.8726 39.0477 20.6667 36.6928 20.6667 34.5ZM33.0667 41.3608V35.1273C35.1218 35.4068 37.1931 35.5465 39.2667 35.5455C41.3398 35.5484 43.4109 35.414 45.4667 35.143V41.3608C41.3553 41.9706 37.178 41.9706 33.0667 41.3608ZM49.6 40.4774V34.3693C52.9351 33.5513 55.7587 32.3333 57.8667 30.8226V34.5C57.8667 36.6928 54.6607 39.0477 49.6 40.4774Z" fill="#224ACC"/>
</svg>
