<svg width="28" height="27" viewBox="0 0 28 27" fill="none" xmlns="http://www.w3.org/2000/svg">
<path d="M27.9063 10.161C27.7852 9.78773 27.5569 9.45834 27.25 9.21384C26.943 8.96935 26.5709 8.82056 26.18 8.786L18.7563 8.146L15.8463 1.226C15.6948 0.862896 15.4392 0.552735 15.1118 0.334573C14.7844 0.11641 14.3997 0 14.0063 0C13.6128 0 13.2282 0.11641 12.9008 0.334573C12.5733 0.552735 12.3178 0.862896 12.1663 1.226L9.26503 8.146L1.83253 8.78975C1.44007 8.82273 1.06609 8.97084 0.757476 9.21552C0.448862 9.4602 0.219358 9.79055 0.0977427 10.1651C-0.0238726 10.5397 -0.0321851 10.9419 0.0738477 11.3212C0.179881 11.7005 0.395539 12.04 0.693778 12.2973L6.33253 17.2248L4.64253 24.5422C4.55316 24.9252 4.57866 25.326 4.71584 25.6945C4.85301 26.063 5.09577 26.3829 5.41377 26.6142C5.73177 26.8455 6.11089 26.9779 6.50374 26.9949C6.8966 27.0119 7.28574 26.9127 7.62253 26.7097L13.9975 22.8347L20.3863 26.7097C20.7231 26.9127 21.1122 27.0119 21.5051 26.9949C21.8979 26.9779 22.277 26.8455 22.595 26.6142C22.913 26.3829 23.1558 26.063 23.293 25.6945C23.4301 25.326 23.4556 24.9252 23.3663 24.5422L21.6775 17.2173L27.315 12.2973C27.6132 12.0391 27.8285 11.6986 27.9337 11.3185C28.0389 10.9384 28.0293 10.5357 27.9063 10.161ZM26.0038 10.786L20.3663 15.706C20.0919 15.9447 19.8878 16.2536 19.7759 16.5996C19.664 16.9457 19.6486 17.3156 19.7313 17.6698L21.425 24.9998L15.0413 21.1248C14.7298 20.9351 14.3722 20.8348 14.0075 20.8348C13.6429 20.8348 13.2852 20.9351 12.9738 21.1248L6.59878 24.9998L8.28128 17.6747C8.36397 17.3206 8.34854 16.9507 8.23665 16.6046C8.12476 16.2586 7.92065 15.9497 7.64628 15.711L2.00628 10.7935C2.00582 10.7898 2.00582 10.786 2.00628 10.7823L9.43628 10.1398C9.79903 10.1078 10.1462 9.97737 10.4402 9.76259C10.7343 9.54781 10.9642 9.25682 11.105 8.921L14.0063 2.00975L16.9063 8.921C17.0471 9.25682 17.277 9.54781 17.5711 9.76259C17.8651 9.97737 18.2123 10.1078 18.575 10.1398L26.0063 10.7823C26.0063 10.7823 26.0063 10.7898 26.0063 10.791L26.0038 10.786Z" fill="white"/>
</svg>
