<svg width="43" height="49" viewBox="0 0 44 45" fill="none" xmlns="http://www.w3.org/2000/svg">
<path d="M40.3333 0H3.66667C2.69421 0 1.76157 0.37929 1.07394 1.05443C0.386308 1.72957 0 2.64526 0 3.60006V16.8258C0 36.9883 17.3754 43.6777 20.8542 44.8139C21.5972 45.062 22.4028 45.062 23.1458 44.8139C26.6292 43.6777 44 36.9883 44 16.8258V3.60006C44 2.64526 43.6137 1.72957 42.9261 1.05443C42.2384 0.37929 41.3058 0 40.3333 0ZM40.3333 16.828C40.3333 34.4728 25.1281 40.3679 22 41.3939C18.8994 40.3791 3.66667 34.4885 3.66667 16.828V3.60006H40.3333V16.828ZM11.5362 22.8739C11.1922 22.5361 10.999 22.078 10.999 21.6003C10.999 21.1227 11.1922 20.6646 11.5362 20.3268C11.8803 19.9891 12.3468 19.7993 12.8333 19.7993C13.3198 19.7993 13.7864 19.9891 14.1304 20.3268L18.3333 24.4534L29.8696 13.1267C30.0399 12.9595 30.2421 12.8268 30.4647 12.7363C30.6872 12.6458 30.9258 12.5992 31.1667 12.5992C31.4076 12.5992 31.6461 12.6458 31.8686 12.7363C32.0912 12.8268 32.2934 12.9595 32.4638 13.1267C32.6341 13.2939 32.7692 13.4925 32.8614 13.711C32.9536 13.9295 33.001 14.1637 33.001 14.4002C33.001 14.6367 32.9536 14.8709 32.8614 15.0894C32.7692 15.308 32.6341 15.5065 32.4638 15.6737L19.6304 28.2739C19.4601 28.4413 19.258 28.5741 19.0354 28.6647C18.8128 28.7552 18.5743 28.8019 18.3333 28.8019C18.0924 28.8019 17.8538 28.7552 17.6313 28.6647C17.4087 28.5741 17.2065 28.4413 17.0362 28.2739L11.5362 22.8739Z" fill="#224ACC"/>
</svg>
