<svg width="15" height="15" viewBox="0 0 15 15" fill="none" xmlns="http://www.w3.org/2000/svg">
<path d="M8.30799 1.04301L9.55466 3.53634C9.72466 3.88342 10.178 4.21634 10.5605 4.28009L12.8201 4.65551C14.2651 4.89634 14.6051 5.94467 13.5638 6.97884L11.8072 8.73551C11.5097 9.03301 11.3467 9.60676 11.4388 10.0176L11.9417 12.1922C12.3384 13.9134 11.4247 14.5793 9.90174 13.6797L7.78383 12.4259C7.40133 12.1993 6.77091 12.1993 6.38133 12.4259L4.26341 13.6797C2.74758 14.5793 1.82674 13.9063 2.22341 12.1922L2.72633 10.0176C2.81841 9.60676 2.65549 9.03301 2.35799 8.73551L0.601327 6.97884C-0.43284 5.94467 -0.0999226 4.89634 1.34508 4.65551L3.60466 4.28009C3.98008 4.21634 4.43341 3.88342 4.60341 3.53634L5.85008 1.04301C6.53008 -0.309909 7.63508 -0.309909 8.30799 1.04301Z" fill="url(#paint0_linear_337_6194)"/>
<defs>
<linearGradient id="paint0_linear_337_6194" x1="-0.417481" y1="6.55664" x2="14.0825" y2="6.55664" gradientUnits="userSpaceOnUse">
<stop stop-color="#F35B6A"/>
<stop offset="0.522432" stop-color="#F35B6A"/>
<stop offset="0.523535" stop-color="#828EA5"/>
<stop offset="1" stop-color="#828EA5"/>
</linearGradient>
</defs>
</svg>
